# xmcd
#
# Track frame offsets: 
#        150
#        19332
#        38857
#        56902
#        74947
#        94280
#        115680
#        132812
#        152865
#        175902
#        200195
#
# Disc length: 3307 seconds
#
# Revision: 5
# Processed by: cddbd v1.5.2PL0 Copyright (c) Steve Scherf et al.
# Submitted via: ExactAudioCopy v0.95a5
#
DISCID=a90ce90b
DTITLE=Larry Carlton - k-Deep Into It
DYEAR=2001
DGENRE=Fusion
TTITLE0=Put It Where You Want It
TTITLE1=Deep Into It
TTITLE2=Don't Break My Heart
TTITLE3=I Still Believe (feat. Wendy Moten)
TTITLE4=Morning Magic
TTITLE5=It's A Groove Thang
TTITLE6=Closer To Home
TTITLE7=I Can't Tell You Why (feat. Shai)
TTITLE8=Like Butta'
TTITLE9=Roll With It
TTITLE10=Put It Where You Want It (Extended Version)
EXTD=YEAR: 2001
EXTT0=
EXTT1=
EXTT2=
EXTT3=
EXTT4=
EXTT5=
EXTT6=
EXTT7=
EXTT8=
EXTT9=
EXTT10=
PLAYORDER=
